<?xml version="1.0" encoding="UTF-8" ?>
<!DOCTYPE svg PUBLIC "-//W3C//DTD SVG 1.1//EN" "http://www.w3.org/Graphics/SVG/1.1/DTD/svg11.dtd">
<svg width="1735pt" height="576pt" viewBox="0 0 1735 576" version="1.1" xmlns="http://www.w3.org/2000/svg">
<path fill="#fefefe" d=" M 0.00 0.00 L 1735.00 0.00 L 1735.00 23.87 C 1723.65 23.52 1712.22 22.50 1700.94 24.25 C 1684.03 26.55 1667.95 33.93 1654.88 44.86 C 1640.03 57.15 1627.80 73.09 1621.64 91.50 C 1614.85 111.66 1615.18 133.70 1620.04 154.25 C 1623.74 170.12 1630.45 185.14 1638.54 199.25 C 1644.22 209.52 1649.89 219.90 1653.58 231.09 C 1659.73 249.06 1653.49 270.00 1639.54 282.62 C 1627.90 294.00 1611.35 298.64 1595.41 298.90 C 1595.33 316.65 1595.36 334.41 1595.39 352.16 C 1614.65 357.56 1635.44 357.04 1654.63 351.56 C 1672.04 346.53 1687.69 336.30 1700.06 323.14 C 1715.32 307.58 1725.05 286.70 1726.73 264.93 C 1729.02 244.81 1724.23 224.47 1715.85 206.23 C 1709.81 192.54 1701.06 180.28 1694.64 166.79 C 1689.17 155.10 1685.41 142.00 1687.42 129.02 C 1689.49 110.94 1701.35 94.54 1717.46 86.26 C 1723.01 83.37 1729.13 81.85 1735.00 79.74 L 1735.00 576.00 L 406.59 576.00 C 424.88 575.25 444.08 568.32 455.23 553.13 C 464.75 540.58 466.53 524.27 466.76 509.01 C 466.87 472.76 466.77 436.51 466.81 400.27 C 461.43 400.27 456.05 400.28 450.68 400.26 C 450.63 407.48 450.68 414.71 450.64 421.94 C 441.29 410.96 429.25 401.62 414.90 398.55 C 400.96 395.67 385.95 396.85 373.07 403.16 C 358.45 409.92 346.46 422.21 340.30 437.12 C 332.79 454.92 333.60 476.19 342.82 493.22 C 355.31 516.85 383.74 530.01 409.91 525.86 C 425.73 523.60 440.73 515.33 450.60 502.69 C 450.72 513.40 450.85 524.37 447.65 534.71 C 445.14 542.88 438.81 549.30 431.60 553.58 C 422.47 559.15 411.59 561.11 401.02 560.89 C 389.55 561.04 377.58 558.69 368.15 551.85 C 362.55 547.79 358.08 542.36 354.56 536.44 C 348.67 536.40 342.77 536.39 336.88 536.46 C 341.36 546.15 347.04 555.69 355.63 562.30 C 367.34 571.17 382.08 575.04 396.55 576.00 L 0.00 576.00 L 0.00 561.40 C 37.91 533.17 76.03 505.21 114.01 477.07 C 117.06 474.72 120.39 472.70 123.22 470.08 C 124.50 469.11 124.01 467.35 124.19 465.99 C 124.07 428.20 124.25 390.41 124.15 352.62 C 106.15 365.39 88.60 378.79 70.78 391.82 C 47.19 409.26 23.56 426.66 0.00 444.13 L 0.00 417.82 C 38.62 389.16 77.36 360.65 116.03 332.04 C 118.64 330.01 121.61 328.37 123.84 325.90 C 124.39 322.99 124.13 320.00 124.17 317.05 C 124.10 281.04 124.21 245.04 124.17 209.03 C 82.65 239.41 41.32 270.06 0.00 300.71 L 0.00 277.07 C 39.12 248.15 78.24 219.24 117.38 190.35 C 119.56 188.61 122.22 187.30 123.88 185.01 C 124.22 183.35 124.16 181.65 124.19 179.98 C 124.05 142.82 124.27 105.67 124.13 68.52 C 121.35 70.23 118.69 72.14 116.09 74.10 C 77.43 102.77 38.61 131.24 0.00 159.97 L 0.00 0.00 Z" />
<path fill="#92bc69" d=" M 143.62 0.66 C 144.93 1.24 146.26 1.80 147.44 2.61 C 185.36 30.66 223.31 58.66 261.23 86.69 C 263.53 88.95 268.26 90.05 267.81 93.98 C 267.82 148.31 267.77 202.64 267.86 256.97 C 267.78 263.67 268.04 270.37 267.66 277.06 C 226.28 246.51 184.86 216.02 143.58 185.33 C 143.66 123.77 143.49 62.21 143.62 0.66 Z" />
<path fill="#242021" d=" M 1700.94 24.25 C 1712.22 22.50 1723.65 23.52 1735.00 23.87 L 1735.00 79.74 C 1729.13 81.85 1723.01 83.37 1717.46 86.26 C 1701.35 94.54 1689.49 110.94 1687.42 129.02 C 1685.41 142.00 1689.17 155.10 1694.64 166.79 C 1701.06 180.28 1709.81 192.54 1715.85 206.23 C 1724.23 224.47 1729.02 244.81 1726.73 264.93 C 1725.05 286.70 1715.32 307.58 1700.06 323.14 C 1687.69 336.30 1672.04 346.53 1654.63 351.56 C 1635.44 357.04 1614.65 357.56 1595.39 352.16 C 1595.36 334.41 1595.33 316.65 1595.41 298.90 C 1611.35 298.64 1627.90 294.00 1639.54 282.62 C 1653.49 270.00 1659.73 249.06 1653.58 231.09 C 1649.89 219.90 1644.22 209.52 1638.54 199.25 C 1630.45 185.14 1623.74 170.12 1620.04 154.25 C 1615.18 133.70 1614.85 111.66 1621.64 91.50 C 1627.80 73.09 1640.03 57.15 1654.88 44.86 C 1667.95 33.93 1684.03 26.55 1700.94 24.25 Z" />
<path fill="#242021" d=" M 690.61 24.88 C 711.01 22.40 731.89 22.42 752.06 26.63 C 773.05 30.98 793.00 40.05 810.25 52.77 C 836.63 72.52 858.68 98.93 870.37 129.97 C 877.87 149.71 881.04 170.95 880.69 192.02 C 880.51 216.86 875.27 241.86 864.01 264.09 C 856.03 280.18 845.00 294.61 832.42 307.36 C 819.50 320.19 804.83 331.37 788.48 339.46 C 762.51 352.56 732.88 357.31 704.02 355.69 C 673.34 354.50 643.00 344.25 618.23 326.04 C 590.21 305.46 567.14 277.12 556.01 243.93 C 547.95 219.91 545.91 194.10 548.60 168.98 C 550.64 149.84 555.99 130.99 564.89 113.89 C 572.21 99.59 581.97 86.64 593.06 75.05 C 606.07 61.66 621.00 50.01 637.63 41.44 C 654.13 32.83 672.20 27.44 690.61 24.88 Z" />
<path fill="#242021" d=" M 335.32 32.34 C 397.82 32.33 460.33 32.34 522.84 32.33 C 522.80 49.31 522.93 66.29 522.77 83.27 C 479.72 83.27 436.66 83.22 393.60 83.29 C 393.64 126.98 393.58 170.67 393.63 214.36 C 420.83 214.44 448.03 214.27 475.23 214.45 C 475.22 228.29 475.20 242.12 475.24 255.96 C 475.36 257.37 475.35 259.96 473.12 259.31 C 446.61 259.32 420.11 259.27 393.60 259.33 C 393.62 288.51 393.60 317.68 393.61 346.85 C 374.18 346.86 354.75 346.86 335.31 346.85 C 335.32 242.02 335.31 137.18 335.32 32.34 Z" />
<path fill="#242021" d=" M 933.76 32.40 C 971.84 32.26 1009.93 32.37 1048.01 32.34 C 1067.28 32.21 1086.87 34.64 1104.84 41.90 C 1125.93 50.22 1143.18 67.27 1152.56 87.82 C 1158.68 101.30 1160.96 116.27 1160.58 131.00 C 1160.34 146.55 1155.63 162.01 1147.08 175.01 C 1136.86 190.73 1122.06 202.90 1106.22 212.63 C 1125.21 257.30 1143.89 302.11 1162.84 346.80 C 1142.34 346.90 1121.84 346.89 1101.34 346.80 C 1087.26 314.50 1073.01 282.28 1058.86 250.01 C 1058.23 248.41 1058.46 246.64 1058.41 244.96 C 1058.54 224.65 1058.28 204.33 1058.54 184.02 C 1071.02 181.45 1083.04 175.01 1090.85 164.76 C 1098.99 154.05 1102.00 140.10 1101.03 126.86 C 1100.10 114.44 1094.17 102.46 1084.52 94.53 C 1072.17 84.30 1055.69 80.62 1039.97 80.34 C 1024.09 80.26 1008.20 80.30 992.32 80.22 C 992.33 169.08 992.31 257.94 992.33 346.81 C 972.81 346.89 953.28 346.90 933.76 346.80 C 933.77 242.00 933.78 137.20 933.76 32.40 Z" />
<path fill="#242021" d=" M 1199.20 32.34 C 1273.99 32.34 1348.79 32.33 1423.59 32.34 C 1423.58 50.49 1423.58 68.65 1423.59 86.81 C 1397.73 86.80 1371.87 86.84 1346.01 86.79 C 1344.18 86.78 1342.39 87.00 1340.62 87.23 C 1340.75 173.77 1340.63 260.31 1340.67 346.85 C 1321.23 346.87 1301.79 346.86 1282.35 346.85 C 1282.39 260.32 1282.27 173.78 1282.41 87.24 C 1273.64 86.30 1264.79 87.05 1256.00 86.81 C 1237.06 86.81 1218.13 86.81 1199.19 86.81 C 1199.19 68.65 1199.19 50.49 1199.20 32.34 Z" />
<path fill="#242021" d=" M 1484.52 32.35 C 1503.94 32.31 1523.37 32.35 1542.80 32.34 C 1542.80 35.56 1542.79 38.79 1542.85 42.02 C 1542.78 56.68 1542.76 71.34 1542.86 86.00 C 1542.82 88.33 1542.82 90.67 1542.85 93.00 C 1542.78 103.00 1542.75 113.01 1542.87 123.01 C 1542.76 149.34 1542.77 175.67 1542.87 202.00 C 1542.74 216.34 1542.80 230.68 1542.85 245.02 C 1542.80 247.68 1542.81 250.34 1542.84 253.01 C 1542.76 284.29 1542.83 315.57 1542.81 346.86 C 1523.37 346.84 1503.94 346.90 1484.51 346.83 C 1484.53 242.00 1484.52 137.18 1484.52 32.35 Z" />
<path fill="#0a673b" d=" M 116.09 74.10 C 118.69 72.14 121.35 70.23 124.13 68.52 C 124.27 105.67 124.05 142.82 124.19 179.98 C 124.16 181.65 124.22 183.35 123.88 185.01 C 122.22 187.30 119.56 188.61 117.38 190.35 C 78.24 219.24 39.12 248.15 0.00 277.07 L 0.00 159.97 C 38.61 131.24 77.43 102.77 116.09 74.10 Z" />
<path fill="#fefefe" d=" M 666.82 91.84 C 684.30 82.60 704.47 79.26 724.09 80.84 C 739.73 82.47 755.12 87.27 768.46 95.69 C 787.80 107.76 803.19 126.08 811.70 147.23 C 824.86 180.42 821.79 220.08 802.12 250.09 C 791.63 266.12 777.02 279.56 759.81 288.07 C 728.40 303.49 688.99 301.75 659.47 282.76 C 643.69 272.72 630.58 258.58 621.63 242.17 C 603.02 207.81 604.30 163.48 625.28 130.44 C 635.52 114.33 649.84 100.67 666.82 91.84 Z" />
<path fill="#0c9445" d=" M 0.00 300.71 C 41.32 270.06 82.65 239.41 124.17 209.03 C 124.21 245.04 124.10 281.04 124.17 317.05 C 124.13 320.00 124.39 322.99 123.84 325.90 C 121.61 328.37 118.64 330.01 116.03 332.04 C 77.36 360.65 38.62 389.16 0.00 417.82 L 0.00 300.71 Z" />
<path fill="#d8e025" d=" M 143.65 208.99 C 185.07 239.37 226.26 270.07 267.66 300.47 C 267.74 339.56 267.73 378.65 267.71 417.74 C 226.36 387.17 184.96 356.68 143.67 326.05 C 143.65 287.03 143.59 248.01 143.65 208.99 Z" />
<path fill="#3eae56" d=" M 70.78 391.82 C 88.60 378.79 106.15 365.39 124.15 352.62 C 124.25 390.41 124.07 428.20 124.19 465.99 C 124.01 467.35 124.50 469.11 123.22 470.08 C 120.39 472.70 117.06 474.72 114.01 477.07 C 76.03 505.21 37.91 533.17 0.00 561.40 L 0.00 444.13 C 23.56 426.66 47.19 409.26 70.78 391.82 Z" />
<path fill="#0c9445" d=" M 1202.36 396.79 C 1206.70 396.88 1211.08 396.48 1215.39 397.20 C 1215.25 441.03 1215.33 484.86 1215.35 528.69 C 1214.27 528.70 1213.20 528.72 1212.15 528.75 C 1183.24 495.55 1154.26 462.41 1125.38 429.19 C 1125.21 462.38 1125.38 495.57 1125.29 528.76 C 1120.69 528.78 1116.10 528.80 1111.52 528.73 C 1111.61 484.65 1111.41 440.57 1111.62 396.50 C 1113.72 396.58 1115.38 397.81 1116.63 399.42 C 1141.86 428.49 1167.10 457.56 1192.36 486.61 C 1195.64 490.14 1198.35 494.28 1202.20 497.25 C 1202.42 463.76 1202.11 430.27 1202.36 396.79 Z" />
<path fill="#0c9445" d=" M 533.49 399.34 C 541.84 395.68 551.71 396.64 559.57 401.10 C 556.89 405.75 553.93 410.23 551.23 414.86 C 547.65 413.84 544.05 412.18 540.25 412.84 C 531.25 414.22 523.73 420.79 519.72 428.78 C 513.53 440.17 513.06 453.40 512.57 466.05 C 512.10 486.19 512.44 506.35 512.34 526.50 C 506.76 526.53 501.17 526.54 495.59 526.49 C 495.60 484.43 495.60 442.36 495.59 400.30 C 501.17 400.25 506.75 400.26 512.34 400.29 C 512.35 406.30 512.27 412.31 512.41 418.32 C 517.90 410.56 524.58 403.15 533.49 399.34 Z" />
<path fill="#0c9445" d=" M 626.26 397.34 C 639.77 395.95 653.89 398.35 665.73 405.19 C 685.85 416.87 699.58 439.56 698.83 463.04 C 700.19 492.80 678.14 522.11 648.83 528.23 C 631.18 531.72 611.71 529.68 596.57 519.40 C 581.71 509.15 570.90 492.90 568.03 475.00 C 566.09 461.33 567.47 446.94 573.60 434.45 C 583.34 414.28 603.51 398.67 626.26 397.34 Z" />
<path fill="#0c9445" d=" M 747.60 410.58 C 756.73 403.02 768.24 398.36 780.05 397.40 C 794.95 395.85 810.70 398.45 823.40 406.71 C 836.88 415.41 847.08 429.26 850.91 444.88 C 852.56 451.32 853.35 457.96 853.47 464.60 C 815.51 464.68 777.54 464.59 739.58 464.65 C 739.88 479.37 745.59 494.32 757.10 503.89 C 777.51 521.83 812.43 516.73 828.33 495.20 C 830.86 491.92 833.13 488.45 835.20 484.86 C 840.06 486.63 844.43 489.44 849.08 491.67 C 841.55 508.45 826.85 522.14 809.00 527.16 C 795.20 530.86 780.27 530.72 766.56 526.70 C 753.57 522.91 742.61 513.91 735.13 502.79 C 725.62 489.30 721.41 472.27 723.37 455.90 C 724.98 438.35 734.21 421.89 747.60 410.58 Z" />
<path fill="#0c9445" d=" M 934.07 398.99 C 949.50 395.12 966.47 396.70 980.54 404.32 C 991.23 410.18 1000.27 418.98 1006.57 429.41 C 1015.62 444.41 1017.61 463.06 1013.56 479.96 C 1009.57 497.09 998.00 512.03 983.07 521.14 C 969.72 529.34 953.24 531.43 937.99 528.60 C 922.98 525.86 909.92 516.68 900.30 505.10 C 900.18 527.63 900.28 550.15 900.25 572.67 C 894.75 572.71 889.26 572.74 883.76 572.64 C 883.76 515.22 883.81 457.80 883.74 400.38 C 889.25 400.19 894.76 400.23 900.28 400.35 C 900.25 407.94 900.19 415.53 900.32 423.12 C 908.57 411.73 920.29 402.51 934.07 398.99 Z" />
<path fill="#0c9445" d=" M 1237.30 396.82 C 1241.99 396.78 1246.69 396.84 1251.38 396.74 C 1266.39 430.46 1280.56 464.55 1295.24 498.41 C 1299.23 491.00 1302.08 483.04 1305.62 475.41 C 1315.90 451.80 1326.21 428.19 1336.50 404.58 C 1337.64 402.08 1338.45 399.39 1340.03 397.10 C 1344.64 396.38 1349.39 396.97 1354.07 396.82 C 1346.71 414.98 1338.50 432.78 1330.81 450.80 C 1319.52 476.83 1308.09 502.81 1296.89 528.88 C 1295.41 528.66 1293.37 529.20 1293.15 527.14 C 1274.55 483.69 1255.79 440.31 1237.30 396.82 Z" />
<path fill="#0c9445" d=" M 373.07 403.16 C 385.95 396.85 400.96 395.67 414.90 398.55 C 429.25 401.62 441.29 410.96 450.64 421.94 C 450.68 414.71 450.63 407.48 450.68 400.26 C 456.05 400.28 461.43 400.27 466.81 400.27 C 466.77 436.51 466.87 472.76 466.76 509.01 C 466.53 524.27 464.75 540.58 455.23 553.13 C 444.08 568.32 424.88 575.25 406.59 576.00 L 396.55 576.00 C 382.08 575.04 367.34 571.17 355.63 562.30 C 347.04 555.69 341.36 546.15 336.88 536.46 C 342.77 536.39 348.67 536.40 354.56 536.44 C 358.08 542.36 362.55 547.79 368.15 551.85 C 377.58 558.69 389.55 561.04 401.02 560.89 C 411.59 561.11 422.47 559.15 431.60 553.58 C 438.81 549.30 445.14 542.88 447.65 534.71 C 450.85 524.37 450.72 513.40 450.60 502.69 C 440.73 515.33 425.73 523.60 409.91 525.86 C 383.74 530.01 355.31 516.85 342.82 493.22 C 333.60 476.19 332.79 454.92 340.30 437.12 C 346.46 422.21 358.45 409.92 373.07 403.16 Z" />
<path fill="#fefefe" d=" M 397.55 412.85 C 412.47 411.29 427.99 416.85 438.45 427.63 C 447.36 437.02 451.79 450.09 451.50 462.94 C 451.61 475.97 446.94 489.33 437.24 498.30 C 425.98 509.25 409.25 512.67 394.05 510.71 C 381.05 509.44 368.59 502.65 360.84 492.07 C 352.75 481.38 350.21 467.12 352.59 454.08 C 355.07 440.12 363.64 427.19 375.96 420.03 C 382.51 416.07 389.95 413.69 397.55 412.85 Z" />
<path fill="#fefefe" d=" M 757.44 423.35 C 776.50 406.89 808.11 409.77 824.70 428.39 C 830.37 434.56 833.21 442.63 835.55 450.53 C 804.14 450.65 772.73 450.59 741.31 450.57 C 744.32 440.38 749.01 430.18 757.44 423.35 Z" />
<path fill="#fefefe" d=" M 943.58 412.85 C 958.73 411.22 974.53 416.91 984.96 428.06 C 993.77 437.75 999.21 450.73 998.88 463.93 C 999.02 475.66 994.43 487.10 987.30 496.29 C 978.37 507.52 964.32 514.65 949.92 514.76 C 936.32 515.05 922.79 509.42 913.06 499.98 C 902.67 489.60 898.05 474.46 899.24 459.98 C 899.80 436.22 919.81 414.72 943.58 412.85 Z" />
<path fill="#fefefe" d=" M 622.14 414.09 C 632.85 412.12 644.43 412.70 654.26 417.76 C 667.16 424.43 677.37 436.60 680.90 450.78 C 684.33 464.27 682.30 479.12 675.00 491.02 C 668.06 502.96 655.57 511.36 641.97 513.56 C 629.84 515.73 616.88 513.40 606.46 506.76 C 595.49 499.99 587.99 488.37 585.06 475.94 C 581.79 461.91 584.32 446.41 592.71 434.59 C 599.69 424.59 610.14 416.78 622.14 414.09 Z" />
</svg>
